<svg height="170.1" viewBox="0 0 836.59569 170.09997" width="836.596" xmlns="http://www.w3.org/2000/svg"><g transform="translate(-7.33)"><g fill="#231f20"><path d="m80.33 11.6c28.6 0 51.8 12.7 51.8 40 0 10.8-3.3 22-15.7 27.7 13.3 7.1 19.8 20.4 19.8 33.2 0 32-29.2 41.6-55.3 41.8h-73.6v-142.7zm-33.2 54.4h32.2c8.4 0 12.8-4.3 12.8-10.6s-4.5-11.2-12.4-11.2h-32.6zm0 56.9h34c10.2 0 15.1-5.5 15.1-13.5 0-7.8-5.1-13.7-15.1-13.7h-34z"/><path d="m365.234 57.4c0 10.8-4.4 20.6-11.4 27.8l-.1.1-60.9 66.7-60.8-66.7-.1-.1c-7-7.1-11.4-16.9-11.4-27.8 0-21.7 17.6-39.4 39.4-39.4 13.8 0 25.9 7.1 33 17.8 7-10.7 19.2-17.8 33-17.8 21.7.1 39.3 17.7 39.3 39.4z"/><path d="m596.835 90.1c1.7 2.8 4.8 4.7 8.3 4.7 5.4 0 9.7-4.3 9.7-9.7s-4.3-9.7-9.7-9.7c-3.5 0-6.6 1.9-8.3 4.7h-9.7v-24h9.7c1.7 2.8 4.8 4.7 8.3 4.7 5.4 0 9.7-4.3 9.7-9.7s-4.3-9.7-9.7-9.7c-3.5 0-6.6 1.9-8.3 4.7h-9.7v-10.9c0-5-4.1-9-9-9h-9.5v-8.2c2.8-1.7 4.7-4.8 4.7-8.3 0-5.4-4.3-9.7-9.7-9.7s-9.7 4.3-9.7 9.7c0 3.5 1.9 6.6 4.7 8.3v8.2h-24v-8.2c2.8-1.7 4.7-4.8 4.7-8.3 0-5.4-4.3-9.7-9.7-9.7s-9.7 4.3-9.7 9.7c0 3.5 1.9 6.6 4.7 8.3v8.2h-24v-8.2c2.8-1.7 4.7-4.8 4.7-8.3 0-5.4-4.3-9.7-9.7-9.7s-9.7 4.3-9.7 9.7c0 3.5 1.9 6.6 4.7 8.3v8.2h-9.5c-5 0-9 4.1-9 9v10.9h-9.9c-1.7-2.8-4.8-4.7-8.3-4.7-5.4 0-9.7 4.3-9.7 9.7s4.3 9.7 9.7 9.7c3.5 0 6.6-1.9 8.3-4.7h9.9v24h-9.9c-1.7-2.8-4.8-4.7-8.3-4.7-5.4 0-9.7 4.3-9.7 9.7s4.3 9.7 9.7 9.7c3.5 0 6.6-1.9 8.3-4.7h9.9v24h-9.9c-1.7-2.8-4.8-4.7-8.3-4.7-5.4 0-9.7 4.3-9.7 9.7s4.3 9.7 9.7 9.7c3.5 0 6.6-1.9 8.3-4.7h9.9v8.1c0 5 4.1 9 9 9h9.5v10.9c-2.8 1.7-4.7 4.8-4.7 8.3 0 5.4 4.3 9.7 9.7 9.7s9.7-4.3 9.7-9.7c0-3.5-1.9-6.6-4.7-8.3v-10.9h24v10.9c-2.8 1.7-4.7 4.8-4.7 8.3 0 5.4 4.3 9.7 9.7 9.7s9.7-4.3 9.7-9.7c0-3.5-1.9-6.6-4.7-8.3v-10.9h24v10.9c-2.8 1.7-4.7 4.8-4.7 8.3 0 5.4 4.3 9.7 9.7 9.7s9.7-4.3 9.7-9.7c0-3.5-1.9-6.6-4.7-8.3v-10.9h9.5c5 0 9-4.1 9-9v-8.1h9.7c1.7 2.8 4.8 4.7 8.3 4.7 5.4 0 9.7-4.3 9.7-9.7s-4.3-9.7-9.7-9.7c-3.5 0-6.6 1.9-8.3 4.7h-9.7v-24zm8.1-10.9c3.2 0 5.9 2.6 5.9 5.9 0 1.2-.4 2.3-1 3.2-1.1 1.6-2.9 2.6-4.9 2.6-3.2 0-5.9-2.6-5.9-5.9s2.7-5.8 5.9-5.8zm0-34c3.2 0 5.9 2.6 5.9 5.9s-2.6 5.9-5.9 5.9-5.9-2.6-5.9-5.9 2.7-5.9 5.9-5.9zm-151.1 11.8c-3.2 0-5.9-2.6-5.9-5.9s2.6-5.9 5.9-5.9 5.9 2.6 5.9 5.9-2.7 5.9-5.9 5.9zm0 33.9c-3.2 0-5.9-2.6-5.9-5.9s2.6-5.9 5.9-5.9 5.9 2.6 5.9 5.9-2.7 5.9-5.9 5.9zm0 34.1c-3.2 0-5.9-2.6-5.9-5.9 0-3.2 2.6-5.9 5.9-5.9s5.9 2.6 5.9 5.9-2.7 5.9-5.9 5.9zm47.8 35.2c0 3.2-2.6 5.9-5.9 5.9h-.2c-3.1 0-5.7-2.6-5.7-5.7v-.2c0-3.2 2.6-5.9 5.9-5.9s5.9 2.7 5.9 5.9zm-5.9-144.4c-3.2 0-5.9-2.6-5.9-5.9v-.2c0-3.1 2.6-5.7 5.7-5.7h.2c3.2 0 5.9 2.6 5.9 5.9s-2.6 5.9-5.9 5.9zm39.6 144.4c0 1.2-.4 2.4-1 3.3-1 1.6-2.8 2.6-4.8 2.6h-.2c-3.2 0-5.9-2.6-5.9-5.9s2.6-5.9 5.9-5.9 6 2.7 6 5.9zm-5.8-144.4c-3.2 0-5.9-2.6-5.9-5.9s2.6-5.9 5.9-5.9h.2c2 0 3.7 1 4.8 2.6.6.9 1 2.1 1 3.3-.2 3.2-2.8 5.9-6 5.9zm40 144.4c0 3.2-2.6 5.9-5.9 5.9s-5.9-2.6-5.9-5.9 2.6-5.9 5.9-5.9 5.9 2.7 5.9 5.9zm-5.9-144.4c-3.2 0-5.9-2.6-5.9-5.9s2.6-5.9 5.9-5.9 5.9 2.6 5.9 5.9-2.6 5.9-5.9 5.9zm41.3 97.5c3.2 0 5.8 2.5 5.9 5.7v.2c0 3.2-2.6 5.9-5.9 5.9s-5.9-2.6-5.9-5.9 2.7-5.9 5.9-5.9z"/><path d="m179.6 81.5h-13v7h13v13h7v-13h13v-7h-13v-13h-7z" transform="translate(-6.301 -2.1)"/><path d="m417.1 81.5h-13v7h13v13h7v-13h13v-7h-13v-13h-7z" transform="translate(-16.803)"/><path d="m634.903 71.8h33v7h-33z"/><path d="m634.903 91.3h33v7h-33z"/></g><path d="m774.032 161.732c-1.306-.651-2.897-2.232-3.536-3.513-.638-1.28-17.344-18.597-37.123-38.48-39.753-39.963-40.939-41.5-43.43-56.322-4.923-29.294 19.924-56.58 49.175-54.004 8.968.79 15.896 3.067 22.163 7.284 4.137 2.784 5.651 3.336 6.826 2.49 12.51-9.012 26.996-12.078 40.476-8.567 23.372 6.088 38.706 29.349 34.71 52.653-2.338 13.63-5.335 18.014-28.078 41.075-14.234 14.432-20.158 21.079-19.431 21.805.574.575 2.572 1.807 4.44 2.74 2.803 1.4 3.447 2.33 3.698 5.35.24 2.875-.18 3.994-1.972 5.25-3.398 2.379-6.485 1.977-8.536-1.112-.988-1.489-17.62-18.702-36.961-38.25-30.694-31.025-35.255-36.029-35.873-39.357-1.602-8.625 1.461-16 7.92-19.064 3.916-1.858 10.802-2.13 13.767-.543 1.581.846 2.431.705 3.934-.655 2.7-2.444 2.43-3.18-1.833-4.99-5.698-2.42-14.948-1.563-20.125 1.864-6.045 4-9.424 9.677-9.93 16.686-.781 10.794-1.19 10.258 37.576 49.194 19.538 19.623 36.505 35.925 37.705 36.226 2.964.744 4.753 4.862 3.52 8.103-2.153 5.665-9.92 5.507-12.068-.246-.567-1.519-16.962-18.737-36.434-38.262-39.882-39.992-39.896-40.01-39.896-53 0-9.307 2.549-15.519 9.106-22.195 6.412-6.528 12.835-9.174 22.41-9.232 6.625-.04 8.404.36 13.69 3.086 5.913 3.05 6.119 3.084 7.773 1.256 2.226-2.46.95-4.012-5.634-6.844-7.82-3.364-14.934-4.342-22.112-3.04-20.39 3.697-33.661 21.95-30.78 42.333 1.713 12.115 3.379 14.236 40.853 52 20.061 20.218 35.975 35.46 37.88 36.278 4.4 1.894 6.126 5.658 4.169 9.097-1.872 3.287-5.003 4.42-8.039 2.906zm4.906-5.41c.41-2.875-2.417-4.066-4.562-1.922-1.328 1.328-1.37 1.847-.264 3.18 1.8 2.168 4.435 1.481 4.826-1.258zm10.848-9.812c.333-.868-.131-2.314-1.032-3.215-1.472-1.472-1.79-1.482-3.173-.1-.87.87-1.257 2.266-.893 3.215.814 2.121 4.296 2.19 5.098.1zm10.832-11.91c0-2.205-3.11-3.304-4.74-1.674-1.68 1.68-.022 4.337 2.485 3.981 1.475-.21 2.255-1.006 2.255-2.306zm30.06-62.013c2.685-5.48 2.94-6.908 2.94-16.5 0-9.2-.32-11.18-2.582-16.002-6.842-14.587-24.3-23.877-39.562-21.056-11.703 2.164-15.24 4.659-36.52 25.77l-19.827 19.67 2.192 2.332 2.191 2.333 20.554-20.39c23.215-23.032 25.018-24.187 37.612-24.118 22.71.126 37.658 24.452 27.556 44.842-2.424 4.892-6.844 9.921-22.047 25.083l-19.014 18.964 2.221 2.364 2.222 2.365 19.562-19.828c15.415-15.625 20.186-21.1 22.502-25.829zm-12.587-9.773c3.902-14.332-4.92-27.517-19.098-28.542-10.172-.736-12.146.56-33.67 22.108l-19.295 19.316 2.09 1.89c2.082 1.885 2.153 1.828 20.294-16.167 10.013-9.932 19.318-18.795 20.678-19.695 3.192-2.113 11.208-2.12 15.646-.014 1.882.893 4.394 2.99 5.582 4.659 2.826 3.968 3.583 12.327 1.477 16.305-.848 1.602-9.886 11.222-20.084 21.377l-18.54 18.463 2.204 2.346 2.204 2.347 19.606-19.81c17.378-17.558 19.754-20.352 20.906-24.583zm-13.973-6.715c0-1.31-.979-3.424-2.175-4.697-4.293-4.57-5.95-3.549-26.308 16.215l-18.982 18.43 4.974 5.049 4.973 5.05 18.759-18.833c13.827-13.881 18.759-19.458 18.759-21.214zm-68.532-6.852c-2.188-.453-6.468 3.662-6.468 6.217 0 1.722.613 1.431 4.057-1.924 3.11-3.031 3.673-4.032 2.41-4.293z" fill="#960000"/></g></svg>