<?xml version="1.0" encoding="UTF-8" standalone="no"?>
<!-- Generator: Adobe Illustrator 20.0.0, SVG Export Plug-In . SVG Version: 6.00 Build 0)  -->

<svg
   xmlns:dc="http://purl.org/dc/elements/1.1/"
   xmlns:cc="http://creativecommons.org/ns#"
   xmlns:rdf="http://www.w3.org/1999/02/22-rdf-syntax-ns#"
   xmlns:svg="http://www.w3.org/2000/svg"
   xmlns="http://www.w3.org/2000/svg"
   xmlns:sodipodi="http://sodipodi.sourceforge.net/DTD/sodipodi-0.dtd"
   xmlns:inkscape="http://www.inkscape.org/namespaces/inkscape"
   version="1.1"
   id="Layer_1"
   x="0px"
   y="0px"
   viewBox="0 0 155 153.7"
   style="enable-background:new 0 0 155 153.7;"
   xml:space="preserve"
   inkscape:version="0.91 r13725"
   sodipodi:docname="BNVTTech_Heart_Black.svg"><metadata
     id="metadata11"><rdf:RDF><cc:Work
         rdf:about=""><dc:format>image/svg+xml</dc:format><dc:type
           rdf:resource="http://purl.org/dc/dcmitype/StillImage" /><dc:title></dc:title></cc:Work></rdf:RDF></metadata><defs
     id="defs9" /><sodipodi:namedview
     pagecolor="#ffffff"
     bordercolor="#666666"
     borderopacity="1"
     objecttolerance="10"
     gridtolerance="10"
     guidetolerance="10"
     inkscape:pageopacity="0"
     inkscape:pageshadow="2"
     inkscape:window-width="1055"
     inkscape:window-height="785"
     id="namedview7"
     showgrid="false"
     inkscape:zoom="1.5354587"
     inkscape:cx="77.5"
     inkscape:cy="76.849998"
     inkscape:window-x="0"
     inkscape:window-y="0"
     inkscape:window-maximized="0"
     inkscape:current-layer="Layer_1" /><style
     type="text/css"
     id="style3">
	.st0{fill:#231F20;}
</style><path
     class="st0"
     d="M141.2,80.1c18.3-18.3,18.3-48.1,0-66.4C123.8-3.7,95.9-4.5,77.5,11.3C59-4.5,31.2-3.7,13.7,13.7  C-4.6,32-4.6,61.8,13.7,80.1L80.6,147c0,0,0,0,0,0c0,3.7,3,6.6,6.6,6.6c3.7,0,6.6-3,6.6-6.6c0-3.6-2.9-6.6-6.6-6.6L20.4,73.5  C5.8,58.8,5.8,35,20.4,20.4C34.1,6.7,55.9,5.8,70.7,17.9L66.5,22c-5.6-4.4-12.4-6.8-19.6-6.8c-8.5,0-16.4,3.3-22.4,9.3  c-6,6-9.3,13.9-9.3,22.4c0,8.5,3.3,16.4,9.3,22.4l66.9,66.9c0,3.7,3,6.6,6.6,6.6c3.7,0,6.6-3,6.6-6.6c0-3.7-3-6.6-6.6-6.6L31.2,62.7  c-4.2-4.2-6.5-9.8-6.5-15.7c0-5.9,2.3-11.5,6.5-15.7c4.2-4.2,9.8-6.5,15.7-6.5c4.7,0,9.1,1.4,12.8,4.1L55.5,33  c-6.3-3.9-14.7-3.1-20.2,2.4c-6.4,6.4-6.4,16.8,0,23.2l66.9,66.9c0,3.7,3,6.6,6.6,6.6c3.7,0,6.6-3,6.6-6.6c0-3.7-3-6.6-6.6-6.6  l-3.2-3.2c0.2-0.2,0.5-0.4,0.7-0.6L141.2,80.1z M87.3,144.2c1.6,0,2.9,1.3,2.9,2.9c0,1.6-1.3,2.9-2.9,2.9c-1.6,0-2.9-1.3-2.9-2.9  C84.4,145.5,85.7,144.2,87.3,144.2z M98.1,133.4c1.6,0,2.9,1.3,2.9,2.9c0,1.6-1.3,2.9-2.9,2.9c-1.6,0-2.9-1.3-2.9-2.9  C95.2,134.7,96.5,133.4,98.1,133.4z M108.9,122.6c1.6,0,2.9,1.3,2.9,2.9c0,1.6-1.3,2.9-2.9,2.9c-1.6,0-2.9-1.3-2.9-2.9  C106,123.9,107.3,122.6,108.9,122.6z M42,42c1.7-1.7,4.2-2.4,6.4-1.9l-8.3,8.3C39.7,46.2,40.3,43.7,42,42z M77.5,87.4l-10-10  c0.2-0.2,0.5-0.4,0.7-0.6L103.1,42c1.3-1.3,3.1-2,4.9-2c1.9,0,3.6,0.7,4.9,2c1.3,1.3,2,3.1,2,4.9c0,1.9-0.7,3.6-2,4.9L78.1,86.7  C77.9,86.9,77.7,87.2,77.5,87.4z M88.3,98.2l-4.3-4.3c0.2-0.2,0.5-0.4,0.7-0.6l34.8-34.8c3.1-3.1,4.8-7.2,4.8-11.6  c0-4.4-1.7-8.5-4.8-11.6c-6.4-6.4-16.8-6.4-23.2,0L61.6,70.2c-0.2,0.2-0.4,0.4-0.6,0.7l-4.3-4.3c0.2-0.2,0.5-0.4,0.7-0.6l34.8-34.8  c4.2-4.2,9.8-6.5,15.7-6.5s11.5,2.3,15.7,6.5c8.7,8.7,8.7,22.8,0,31.5L88.9,97.5C88.7,97.7,88.5,98,88.3,98.2z M99.7,108.3  c-0.2,0.2-0.4,0.4-0.6,0.7l-4.3-4.3c0.2-0.2,0.5-0.4,0.7-0.6l34.8-34.8c12.4-12.4,12.4-32.5,0-44.8c-12.4-12.4-32.5-12.4-44.8,0  L50.8,59.4c-0.2,0.2-0.4,0.4-0.6,0.7l-4.3-4.3c0.2-0.2,0.5-0.4,0.7-0.6l34.8-34.8c14.6-14.6,38.4-14.6,53.1,0  c14.6,14.6,14.6,38.4,0,53.1L99.7,108.3z"
     id="path5"
     style="fill:#ffffff;fill-opacity:1" /></svg>