<?xml version="1.0" encoding="UTF-8" standalone="no"?>
<!-- Generator: Adobe Illustrator 20.0.0, SVG Export Plug-In . SVG Version: 6.00 Build 0)  -->

<svg
   xmlns:dc="http://purl.org/dc/elements/1.1/"
   xmlns:cc="http://creativecommons.org/ns#"
   xmlns:rdf="http://www.w3.org/1999/02/22-rdf-syntax-ns#"
   xmlns:svg="http://www.w3.org/2000/svg"
   xmlns="http://www.w3.org/2000/svg"
   xmlns:sodipodi="http://sodipodi.sourceforge.net/DTD/sodipodi-0.dtd"
   xmlns:inkscape="http://www.inkscape.org/namespaces/inkscape"
   version="1.1"
   id="Layer_1"
   x="0px"
   y="0px"
   viewBox="0 0 836.59569 170.09997"
   xml:space="preserve"
   inkscape:version="0.91 r13725"
   sodipodi:docname="equation.svg"
   width="836.59564"
   height="170.09998"><metadata
     id="metadata33"><rdf:RDF><cc:Work
         rdf:about=""><dc:format>image/svg+xml</dc:format><dc:type
           rdf:resource="http://purl.org/dc/dcmitype/StillImage" /><dc:title></dc:title></cc:Work></rdf:RDF></metadata><defs
     id="defs31" /><sodipodi:namedview
     pagecolor="#ffffff"
     bordercolor="#666666"
     borderopacity="1"
     objecttolerance="10"
     gridtolerance="10"
     guidetolerance="10"
     inkscape:pageopacity="0"
     inkscape:pageshadow="2"
     inkscape:window-width="1431"
     inkscape:window-height="515"
     id="namedview29"
     showgrid="false"
     inkscape:zoom="0.47611736"
     inkscape:cx="263.61194"
     inkscape:cy="253.07578"
     inkscape:window-x="164"
     inkscape:window-y="248"
     inkscape:window-maximized="0"
     inkscape:current-layer="layer1"
     fit-margin-top="0"
     fit-margin-left="0"
     fit-margin-right="0"
     fit-margin-bottom="0" /><style
     type="text/css"
     id="style3">
	.st0{fill:#231F20;}
</style><g
     id="g5"
     transform="translate(-7.3296694,-7.6293954e-6)"
     inkscape:export-xdpi="56.700001"
     inkscape:export-ydpi="56.700001"><g
       id="g7"><path
         class="st0"
         d="m 80.329669,11.599677 c 28.600001,0 51.800001,12.7 51.800001,40 0,10.8 -3.3,22 -15.7,27.7 13.3,7.1 19.8,20.4 19.8,33.200003 0,32 -29.2,41.6 -55.300001,41.8 l -73.5999996,0 0,-142.700003 72.9999996,0 z m -33.2,54.4 32.2,0 c 8.4,0 12.8,-4.3 12.8,-10.6 0,-6.3 -4.5,-11.2 -12.4,-11.2 l -32.6,0 0,21.8 z m 0,56.900003 34,0 c 10.2,0 15.1,-5.5 15.1,-13.5 0,-7.8 -5.1,-13.700003 -15.1,-13.700003 l -34,0 0,27.200003 z"
         id="path9"
         inkscape:connector-curvature="0"
         style="fill:#444444;fill-opacity:1" /></g><g
       id="g11"><path
         class="st0"
         d="m 365.23388,57.4 c 0,10.8 -4.4,20.6 -11.4,27.8 l -0.1,0.1 -60.9,66.7 -60.8,-66.7 -0.1,-0.1 c -7,-7.1 -11.4,-16.9 -11.4,-27.8 0,-21.7 17.6,-39.4 39.4,-39.4 13.8,0 25.9,7.1 33,17.8 7,-10.7 19.2,-17.8 33,-17.8 21.7,0.1 39.3,17.7 39.3,39.4 z"
         id="path13"
         inkscape:connector-curvature="0"
         style="fill:#444444;fill-opacity:1" /></g><g
       id="g15"><path
         class="st0"
         d="m 596.83517,90.1 c 1.7,2.8 4.8,4.7 8.3,4.7 5.4,0 9.7,-4.3 9.7,-9.7 0,-5.4 -4.3,-9.7 -9.7,-9.7 -3.5,0 -6.6,1.9 -8.3,4.7 l -9.7,0 0,-24 9.7,0 c 1.7,2.8 4.8,4.7 8.3,4.7 5.4,0 9.7,-4.3 9.7,-9.7 0,-5.4 -4.3,-9.7 -9.7,-9.7 -3.5,0 -6.6,1.9 -8.3,4.7 l -9.7,0 0,-10.9 c 0,-5 -4.1,-9 -9,-9 l -9.5,0 0,-8.2 c 2.8,-1.7 4.7,-4.8 4.7,-8.3 0,-5.4 -4.3,-9.7 -9.7,-9.7 -5.4,0 -9.7,4.3 -9.7,9.7 0,3.5 1.9,6.6 4.7,8.3 l 0,8.2 -24,0 0,-8.2 c 2.8,-1.7 4.7,-4.8 4.7,-8.3 0,-5.4 -4.3,-9.7 -9.7,-9.7 -5.4,0 -9.7,4.3 -9.7,9.7 0,3.5 1.9,6.6 4.7,8.3 l 0,8.2 -24,0 0,-8.2 c 2.8,-1.7 4.7,-4.8 4.7,-8.3 0,-5.4 -4.3,-9.7 -9.7,-9.7 -5.4,0 -9.7,4.3 -9.7,9.7 0,3.5 1.9,6.6 4.7,8.3 l 0,8.2 -9.5,0 c -5,0 -9,4.1 -9,9 l 0,10.9 -9.9,0 c -1.7,-2.8 -4.8,-4.7 -8.3,-4.7 -5.4,0 -9.7,4.3 -9.7,9.7 0,5.4 4.3,9.7 9.7,9.7 3.5,0 6.6,-1.9 8.3,-4.7 l 9.9,0 0,24 -9.9,0 c -1.7,-2.8 -4.8,-4.7 -8.3,-4.7 -5.4,0 -9.7,4.3 -9.7,9.7 0,5.4 4.3,9.7 9.7,9.7 3.5,0 6.6,-1.9 8.3,-4.7 l 9.9,0 0,24 -9.9,0 c -1.7,-2.8 -4.8,-4.7 -8.3,-4.7 -5.4,0 -9.7,4.3 -9.7,9.7 0,5.4 4.3,9.7 9.7,9.7 3.5,0 6.6,-1.9 8.3,-4.7 l 9.9,0 0,8.1 c 0,5 4.1,9 9,9 l 9.5,0 0,10.9 c -2.8,1.7 -4.7,4.8 -4.7,8.3 0,5.4 4.3,9.7 9.7,9.7 5.4,0 9.7,-4.3 9.7,-9.7 0,-3.5 -1.9,-6.6 -4.7,-8.3 l 0,-10.9 24,0 0,10.9 c -2.8,1.7 -4.7,4.8 -4.7,8.3 0,5.4 4.3,9.7 9.7,9.7 5.4,0 9.7,-4.3 9.7,-9.7 0,-3.5 -1.9,-6.6 -4.7,-8.3 l 0,-10.9 24,0 0,10.9 c -2.8,1.7 -4.7,4.8 -4.7,8.3 0,5.4 4.3,9.7 9.7,9.7 5.4,0 9.7,-4.3 9.7,-9.7 0,-3.5 -1.9,-6.6 -4.7,-8.3 l 0,-10.9 9.5,0 c 5,0 9,-4.1 9,-9 l 0,-8.1 9.7,0 c 1.7,2.8 4.8,4.7 8.3,4.7 5.4,0 9.7,-4.3 9.7,-9.7 0,-5.4 -4.3,-9.7 -9.7,-9.7 -3.5,0 -6.6,1.9 -8.3,4.7 l -9.7,0 0,-24 9.7,0 z m 8.1,-10.9 c 3.2,0 5.9,2.6 5.9,5.9 0,0 0,0 0,0 0,0 0,0 0,0 0,1.2 -0.4,2.3 -1,3.2 -1.1,1.6 -2.9,2.6 -4.9,2.6 -3.2,0 -5.9,-2.6 -5.9,-5.9 0,-3.3 2.7,-5.8 5.9,-5.8 z m 0,-34 c 3.2,0 5.9,2.6 5.9,5.9 0,3.3 -2.6,5.9 -5.9,5.9 -3.3,0 -5.9,-2.6 -5.9,-5.9 0,-3.3 2.7,-5.9 5.9,-5.9 z m -151.1,11.8 c -3.2,0 -5.9,-2.6 -5.9,-5.9 0,-3.3 2.6,-5.9 5.9,-5.9 3.3,0 5.9,2.6 5.9,5.9 0,3.3 -2.7,5.9 -5.9,5.9 z m 0,33.9 c -3.2,0 -5.9,-2.6 -5.9,-5.9 0,-3.3 2.6,-5.9 5.9,-5.9 3.3,0 5.9,2.6 5.9,5.9 0,3.3 -2.7,5.9 -5.9,5.9 z m 0,34.1 c -3.2,0 -5.9,-2.6 -5.9,-5.9 0,-3.2 2.6,-5.9 5.9,-5.9 3.3,0 5.9,2.6 5.9,5.9 0,3.3 -2.7,5.9 -5.9,5.9 z m 47.8,35.2 c 0,3.2 -2.6,5.9 -5.9,5.9 0,0 -0.1,0 -0.1,0 0,0 -0.1,0 -0.1,0 -3.1,0 -5.7,-2.6 -5.7,-5.7 0,0 0,-0.1 0,-0.1 0,0 0,-0.1 0,-0.1 0,-3.2 2.6,-5.9 5.9,-5.9 3.3,0 5.9,2.7 5.9,5.9 z m -5.9,-144.4 c -3.2,0 -5.9,-2.6 -5.9,-5.9 0,0 0,-0.1 0,-0.1 0,0 0,-0.1 0,-0.1 0,-3.1 2.6,-5.7 5.7,-5.7 0,0 0.1,0 0.1,0 0,0 0.1,0 0.1,0 3.2,0 5.9,2.6 5.9,5.9 0,3.3 -2.6,5.9 -5.9,5.9 z m 39.6,144.4 c 0,1.2 -0.4,2.4 -1,3.3 -1,1.6 -2.8,2.6 -4.8,2.6 0,0 0,0 -0.1,0 0,0 0,0 -0.1,0 -3.2,0 -5.9,-2.6 -5.9,-5.9 0,-3.3 2.6,-5.9 5.9,-5.9 3.3,0 6,2.7 6,5.9 z m -5.8,-144.4 c -3.2,0 -5.9,-2.6 -5.9,-5.9 0,-3.3 2.6,-5.9 5.9,-5.9 0,0 0,0 0.1,0 0,0 0,0 0.1,0 2,0 3.7,1 4.8,2.6 0.6,0.9 1,2.1 1,3.3 -0.2,3.2 -2.8,5.9 -6,5.9 z m 40,144.4 c 0,3.2 -2.6,5.9 -5.9,5.9 -3.3,0 -5.9,-2.6 -5.9,-5.9 0,-3.3 2.6,-5.9 5.9,-5.9 3.3,0 5.9,2.7 5.9,5.9 z m -5.9,-144.4 c -3.2,0 -5.9,-2.6 -5.9,-5.9 0,-3.3 2.6,-5.9 5.9,-5.9 3.3,0 5.9,2.6 5.9,5.9 0,3.3 -2.6,5.9 -5.9,5.9 z m 41.3,97.5 c 3.2,0 5.8,2.5 5.9,5.7 0,0.1 0,0.1 0,0.2 0,0 0,0 0,0 0,0 0,0 0,0 0,3.2 -2.6,5.9 -5.9,5.9 -3.3,0 -5.9,-2.6 -5.9,-5.9 0,-3.3 2.7,-5.9 5.9,-5.9 z"
         id="path17"
         inkscape:connector-curvature="0"
         style="fill:#444444;fill-opacity:1" /></g><polygon
       class="st0"
       points="179.6,81.5 166.6,81.5 166.6,88.5 179.6,88.5 179.6,101.5 186.6,101.5 186.6,88.5 199.6,88.5 199.6,81.5 186.6,81.5 186.6,68.5 179.6,68.5 "
       id="polygon19"
       style="fill:#444444;fill-opacity:1"
       transform="translate(-6.3009679,-2.1003227)" /><polygon
       class="st0"
       points="417.1,81.5 404.1,81.5 404.1,88.5 417.1,88.5 417.1,101.5 424.1,101.5 424.1,88.5 437.1,88.5 437.1,81.5 424.1,81.5 424.1,68.5 417.1,68.5 "
       id="polygon21"
       style="fill:#444444;fill-opacity:1"
       transform="translate(-16.802581,0)" /><g
       id="g23"><rect
         x="634.90253"
         y="71.800003"
         class="st0"
         width="33"
         height="7"
         id="rect25"
         style="fill:#444444;fill-opacity:1" /><rect
         x="634.90253"
         y="91.300003"
         class="st0"
         width="33"
         height="7"
         id="rect27"
         style="fill:#444444;fill-opacity:1" /></g></g><g
     inkscape:groupmode="layer"
     id="layer1"
     inkscape:label="logo"
     style="display:inline"
     transform="translate(-7.3296694,-1.1629395e-5)"><path
       style="fill:#960000;fill-opacity:1"
       d="m 774.03207,161.73171 c -1.3062,-0.6512 -2.8973,-2.23192 -3.5359,-3.5127 -0.6385,-1.28078 -17.34399,-18.59691 -37.12326,-38.48029 C 693.61952,79.77607 692.43441,78.239152 689.9431,63.416622 685.0196,34.123207 709.8666,6.8361106 739.11776,9.4127714 c 8.96798,0.7899676 15.89673,3.0671356 22.16288,7.2839416 4.13703,2.784025 5.65163,3.3364 6.82683,2.489835 12.5102,-9.011598 26.9959,-12.0774724 40.4753,-8.566538 23.3719,6.087606 38.7061,29.348515 34.7099,52.652499 -2.3373,13.63053 -5.3344,18.014859 -28.0781,41.075231 -14.2338,14.43196 -20.1571,21.07907 -19.4309,21.80527 0.5745,0.57456 2.5723,1.80728 4.4394,2.73938 2.804,1.39986 3.4477,2.33067 3.6994,5.34971 0.2397,2.87553 -0.1809,3.99513 -1.9725,5.25 -3.3976,2.37974 -6.4848,1.97771 -8.5355,-1.11151 -0.9882,-1.48859 -17.6209,-18.70109 -36.9615,-38.25001 -30.69391,-31.02445 -35.25485,-36.028302 -35.87318,-39.356812 -1.6021,-8.624355 1.46145,-15.99888 7.9194,-19.063375 3.91673,-1.858612 10.80236,-2.130478 13.7675,-0.543583 1.58163,0.846463 2.43152,0.704971 3.93425,-0.654988 2.69991,-2.443381 2.42919,-3.180323 -1.83318,-4.990146 -5.69744,-2.419157 -14.94727,-1.562452 -20.1249,1.863938 -6.04464,4.000158 -9.42342,9.677499 -9.93036,16.685954 -0.78078,10.794131 -1.18968,10.258805 37.57629,49.194082 19.53788,19.62321 36.50498,35.92492 37.70478,36.22603 2.9641,0.74396 4.7535,4.86216 3.521,8.10377 -2.1537,5.66473 -9.9206,5.50638 -12.0682,-0.24604 -0.5672,-1.51926 -16.96249,-18.73729 -36.43392,-38.2623 -39.88254,-39.992273 -39.896,-40.010155 -39.896,-53.000002 0,-9.307222 2.54843,-15.518743 9.10602,-22.194876 6.41182,-6.527733 12.83497,-9.173954 22.40964,-9.232363 6.62451,-0.04041 8.40405,0.360826 13.68903,3.086505 5.91351,3.049833 6.11975,3.083146 7.77366,1.2556 2.22668,-2.460458 0.94967,-4.011809 -5.63361,-6.843859 -7.81947,-3.363847 -14.93393,-4.342079 -22.1122,-3.040411 -20.38977,3.697372 -33.66095,21.950117 -30.77977,42.333503 1.71241,12.114758 3.37836,14.235332 40.85256,52.000653 20.06172,20.21757 35.97569,35.45832 37.87999,36.27764 4.4007,1.89333 6.1261,5.65798 4.1689,9.09606 -1.8714,3.28735 -5.0031,4.41953 -8.0386,2.90615 z m 4.9058,-5.40928 c 0.4102,-2.87531 -2.4173,-4.06674 -4.5617,-1.92224 -1.3279,1.3278 -1.371,1.84637 -0.2645,3.17963 1.7996,2.16833 4.4355,1.48158 4.8262,-1.25739 z m 10.848,-9.81285 c 0.333,-0.86765 -0.1312,-2.31408 -1.0314,-3.21429 -1.4722,-1.47227 -1.7911,-1.48232 -3.1735,-0.1 -0.8693,0.86939 -1.2571,2.26525 -0.893,3.21429 0.8142,2.12173 4.2959,2.19003 5.0979,0.1 z m 10.8319,-11.90876 c 0,-2.20616 -3.1089,-3.3048 -4.739,-1.6747 -1.6808,1.68076 -0.023,4.3372 2.4845,3.98114 1.4752,-0.20948 2.2545,-1.00674 2.2545,-2.30644 z m 30.0603,-62.01371 c 2.6853,-5.480817 2.9397,-6.908573 2.9397,-16.500002 0,-9.200442 -0.3195,-11.181015 -2.5813,-16.002355 -6.8429,-14.586549 -24.2997,-23.877176 -39.5629,-21.05563 -11.703,2.163419 -15.2388,4.658482 -36.5201,25.770769 l -19.82606,19.668589 2.19132,2.332553 2.19132,2.332553 20.55386,-20.390353 c 23.21546,-23.030787 25.01816,-24.186703 37.61236,-24.117148 22.7091,0.125418 37.6578,24.452038 27.5553,44.842033 -2.4239,4.892216 -6.8439,9.920958 -22.0463,25.082698 l -19.0146,18.963713 2.2216,2.36481 2.2216,2.3648 19.5623,-19.828515 c 15.4151,-15.624938 20.1854,-21.100494 22.5019,-25.828515 z m -12.5869,-9.773419 c 3.902,-14.331494 -4.9205,-27.516471 -19.0983,-28.542003 -10.1717,-0.735756 -12.1458,0.560433 -33.67,22.108148 l -19.29497,19.315979 2.08951,1.890979 c 2.08212,1.884294 2.15388,1.827128 20.29496,-16.167382 10.013,-9.932098 19.318,-18.794999 20.6779,-19.695334 3.1913,-2.112861 11.2076,-2.119873 15.6461,-0.01369 1.8814,0.892807 4.3933,2.989072 5.5819,4.658365 2.826,3.96865 3.5832,12.327651 1.4771,16.30478 -0.8486,1.602464 -9.8863,11.222178 -20.0839,21.377142 l -18.5411,18.463575 2.2042,2.34624 2.2042,2.34625 19.6064,-19.809816 c 17.3777,-17.558094 19.7541,-20.352401 20.906,-24.583238 z m -13.9734,-6.714965 c 0,-1.310495 -0.9784,-3.42422 -2.1743,-4.697168 -4.2935,-4.5702 -5.951,-3.548586 -26.3081,16.215534 l -18.98241,18.429428 4.97355,5.04948 4.97356,5.049481 18.7588,-18.832021 c 13.8275,-13.881412 18.7589,-19.458393 18.7589,-21.214734 z m -68.53212,-6.852124 c -2.18715,-0.452364 -6.46789,3.66283 -6.46789,6.217767 0,1.721975 0.61329,1.431084 4.0571,-1.924314 3.11102,-3.031143 3.6732,-4.032352 2.41079,-4.293453 z"
       id="path4184"
       inkscape:connector-curvature="0"
       inkscape:export-xdpi="56.700001"
       inkscape:export-ydpi="56.700001" /></g></svg>